<svg xmlns="http://www.w3.org/2000/svg" xmlns:xlink="http://www.w3.org/1999/xlink" fill="none" version="1.1" width="40" height="40" viewBox="0 0 40 40"><defs><clipPath id="master_svg0_0_1466"><rect x="0" y="0" width="40" height="40" rx="20"/></clipPath></defs><g clip-path="url(#master_svg0_0_1466)"><rect x="0" y="0" width="40" height="40" rx="20" fill="#DB4444" fill-opacity="1"/><g><path d="M10,12.25Q9.9261315,12.25,9.853682,12.264410999999999Q9.781233,12.278822,9.712987,12.30709Q9.644742,12.335359,9.583322,12.376398Q9.521903,12.417437,9.46967,12.46967Q9.417437,12.521903,9.376398,12.583322Q9.335359,12.644742,9.30709,12.712987Q9.278822,12.781233,9.264410999999999,12.853682Q9.25,12.9261315,9.25,13L9.25,27Q9.25,27.073900000000002,9.264410999999999,27.1463Q9.278822,27.2188,9.30709,27.287Q9.335359,27.3553,9.376398,27.4167Q9.417437,27.478099999999998,9.46967,27.5303Q9.521903,27.5826,9.583322,27.6236Q9.644742,27.6646,9.712987,27.6929Q9.781233,27.7212,9.853682,27.735599999999998Q9.9261315,27.75,10,27.75L30,27.75Q30.0739,27.75,30.1463,27.735599999999998Q30.2188,27.7212,30.287,27.6929Q30.3553,27.6646,30.4167,27.6236Q30.4781,27.5826,30.5303,27.5303Q30.5826,27.478099999999998,30.6236,27.4167Q30.6646,27.3553,30.6929,27.287Q30.7212,27.2188,30.7356,27.1463Q30.75,27.073900000000002,30.75,27L30.75,13Q30.75,12.9261315,30.7356,12.853682Q30.7212,12.781233,30.6929,12.712987Q30.6646,12.644742,30.6236,12.583322Q30.5826,12.521903,30.5303,12.46967Q30.4781,12.417437,30.4167,12.376398Q30.3553,12.335359,30.287,12.30709Q30.2188,12.278822,30.1463,12.264410999999999Q30.0739,12.25,30,12.25L10,12.25ZM10.75,14.44049L10.75,26.25L29.25,26.25L29.25,14.44049L20.4301,20.61442Q20.3355,20.68061,20.2255,20.7153Q20.1154,20.75,20,20.75Q19.88459,20.75,19.774520000000003,20.7153Q19.664450000000002,20.68061,19.5699,20.61442L10.75,14.44049ZM27.6207,13.75L12.37927,13.75L20,19.08451L27.6207,13.75Z" fill-rule="evenodd" fill="#FFFFFF" fill-opacity="1"/></g></g></svg>