<svg xmlns="http://www.w3.org/2000/svg" xmlns:xlink="http://www.w3.org/1999/xlink" fill="none" version="1.1" width="56" height="56" viewBox="0 0 56 56"><defs><clipPath id="master_svg0_0_502/0_2835"><rect x="0" y="0" width="56" height="56" rx="0"/></clipPath></defs><g clip-path="url(#master_svg0_0_502/0_2835)"><g></g><g><path d="M9.073939523162842,18.407273015441895Q10.147879523162842,17.333333015441895,11.666669523162842,17.333333015441895L13.999999523162842,17.333333015441895Q16.347209523162842,17.333333015441895,18.006899523162843,15.673603015441895Q19.66669952316284,14.013873015441895,19.66669952316284,11.666663015441895Q19.66669952316284,11.114383015441895,20.057199523162843,10.723853015441895Q20.44769952316284,10.333333015441895,20.999999523162842,10.333333015441895L34.99999952316284,10.333333015441895Q35.552299523162844,10.333333015441895,35.94279952316284,10.723853015441895Q36.33329952316284,11.114383015441895,36.33329952316284,11.666663015441895Q36.33329952316284,14.013883015441895,37.99309952316284,15.673603015441895Q39.65279952316284,17.333333015441895,41.99999952316284,17.333333015441895L44.33329952316284,17.333333015441895Q45.85209952316284,17.333333015441895,46.92609952316284,18.407273015441895Q47.99999952316284,19.481233015441894,47.99999952316284,21.000033015441893L47.99999952316284,42.00003301544189Q47.99999952316284,43.51883301544189,46.92609952316284,44.592733015441894Q45.85209952316284,45.666633015441896,44.33329952316284,45.666633015441896L11.666669523162842,45.666633015441896Q10.147879523162842,45.666633015441896,9.073939523162842,44.592733015441894Q7.999999523162842,43.51883301544189,7.999999523162842,42.00003301544189L7.999999523162842,21.000033015441893Q7.999999523162842,19.481233015441894,9.073939523162842,18.407273015441895ZM11.666669523162842,15.333333015441895Q9.319459523162841,15.333333015441895,7.659727523162842,16.993063015441894Q5.999999523162842,18.652793015441894,5.999999523162842,21.000033015441893L5.999999523162842,42.00003301544189Q5.999999523162842,44.347233015441894,7.659728523162842,46.006933015441895Q9.319449523162842,47.666633015441896,11.666669523162842,47.666633015441896L44.33329952316284,47.666633015441896Q46.680499523162844,47.666633015441896,48.34029952316284,46.006933015441895Q49.99999952316284,44.347233015441894,49.99999952316284,42.00003301544189L49.99999952316284,21.000033015441893Q49.99999952316284,18.652783015441894,48.34029952316284,16.993063015441894Q46.680499523162844,15.333333015441895,44.33329952316284,15.333333015441895L41.99999952316284,15.333333015441895Q40.48119952316284,15.333333015441895,39.40729952316284,14.259393015441894Q38.33329952316284,13.185453015441894,38.33329952316284,11.666663015441895Q38.33329952316284,10.285959015441895,37.35699952316284,9.309644915441895Q36.380699523162846,8.333333015441895,34.99999952316284,8.333333015441895L20.999999523162842,8.333333015441895Q19.619299523162844,8.333333015441895,18.642999523162842,9.309644915441895Q17.66669952316284,10.285954015441895,17.66669952316284,11.666663015441895Q17.66669952316284,13.185453015441894,16.59271952316284,14.259393015441894Q15.518789523162841,15.333333015441895,13.999999523162842,15.333333015441895L11.666669523162842,15.333333015441895Z" fill-rule="evenodd" fill="#000000" fill-opacity="1"/></g><g><path d="M33.6569,24.676483969116212Q31.3137,22.33333396911621,28,22.33333396911621Q24.68629,22.33333396911621,22.34315,24.676483969116212Q20,27.01962396911621,20,30.33333396911621Q20,33.64703396911621,22.34315,35.99023396911621Q24.68629,38.33333396911621,28,38.33333396911621Q31.3137,38.33333396911621,33.6569,35.99023396911621Q36,33.64703396911621,36,30.33333396911621Q36,27.01962396911621,33.6569,24.676483969116212ZM23.75736,26.09069396911621Q25.51472,24.33333396911621,28,24.33333396911621Q30.48528,24.33333396911621,32.242599999999996,26.09069396911621Q34,27.84805396911621,34,30.33333396911621Q34,32.818613969116214,32.242599999999996,34.57593396911621Q30.48528,36.33333396911621,28,36.33333396911621Q25.51472,36.33333396911621,23.75736,34.57593396911621Q21.999999,32.818613969116214,22,30.33333396911621Q22,27.84805396911621,23.75736,26.09069396911621Z" fill-rule="evenodd" fill="#000000" fill-opacity="1"/></g></g></svg>