<svg xmlns="http://www.w3.org/2000/svg" xmlns:xlink="http://www.w3.org/1999/xlink" fill="none" version="1.1" width="56" height="56" viewBox="0 0 56 56"><defs><clipPath id="master_svg0_0_488/0_2795"><rect x="0" y="0" width="56" height="56" rx="0"/></clipPath></defs><g clip-path="url(#master_svg0_0_488/0_2795)"><g></g><g><path d="M14.4218981,6.2187731Q13.328125,7.31255,13.328125,8.85938L13.328125,47.1406Q13.328125,48.6875,14.421897,49.7812Q15.515665,50.875,17.062505,50.875L38.937525,50.875Q40.484325,50.875,41.578125,49.7812Q42.671925,48.6875,42.671925,47.1406L42.671925,8.85938Q42.671925,7.31254,41.578125,6.218773Q40.484325,5.125,38.937525,5.125L17.062505,5.125Q15.515675,5.125,14.4218981,6.2187731ZM15.328125,47.1406L15.328125,8.85938Q15.328125,7.125,17.062505,7.125L38.937525,7.125Q40.671925,7.125,40.671925,8.85938L40.671925,47.1406Q40.671925,48.875,38.937525,48.875L17.062505,48.875Q15.328125,48.875,15.328125,47.1406Z" fill-rule="evenodd" fill="#000000" fill-opacity="1"/></g><g><path d="M25.66666603088379,5.5L31.13541603088379,5.5Q31.209106030883788,5.5,31.28244603088379,5.50722Q31.35577603088379,5.51445,31.428046030883788,5.52882Q31.50032603088379,5.5432,31.57084603088379,5.56459Q31.641356030883788,5.58598,31.70943603088379,5.61418Q31.777526030883788,5.64238,31.84251603088379,5.67712Q31.907496030883788,5.71186,31.96876603088379,5.7528Q32.03004603088379,5.79374,32.08700603088379,5.8404799999999994Q32.14396603088379,5.88723,32.19607603088379,5.93934Q32.24818603088379,5.99145,32.29493603088379,6.04841Q32.34167603088379,6.105373,32.38261603088379,6.166645Q32.42355603088379,6.2279160000000005,32.45829603088379,6.292905Q32.493036030883786,6.357894,32.52123603088379,6.425975Q32.54943603088379,6.4940560000000005,32.57082603088379,6.564573Q32.59221603088379,6.63509,32.60659603088379,6.707365Q32.62096603088379,6.779639,32.628196030883785,6.852974Q32.63541603088379,6.9263097,32.63541603088379,7Q32.63541603088379,7.0736903,32.628196030883785,7.147026Q32.62096603088379,7.220361,32.60659603088379,7.292635Q32.59221603088379,7.36491,32.57082603088379,7.435427Q32.54943603088379,7.5059439999999995,32.52123603088379,7.574025Q32.493036030883786,7.642106,32.45829603088379,7.707095Q32.42355603088379,7.7720839999999995,32.38261603088379,7.833355Q32.34167603088379,7.894627,32.29493603088379,7.95159Q32.24818603088379,8.00855,32.19607603088379,8.06066Q32.14396603088379,8.11277,32.08700603088379,8.15952Q32.03004603088379,8.20626,31.96876603088379,8.2472Q31.907496030883788,8.28814,31.84250603088379,8.32288Q31.777526030883788,8.35762,31.70943603088379,8.38582Q31.641356030883788,8.41402,31.57084603088379,8.435410000000001Q31.50032603088379,8.4568,31.428046030883788,8.47118Q31.35577603088379,8.48555,31.28244603088379,8.49278Q31.209106030883788,8.5,31.13541603088379,8.5L25.66666603088379,8.5Q25.59297573088379,8.5,25.51964003088379,8.49278Q25.44630503088379,8.48555,25.37403103088379,8.47118Q25.30175603088379,8.4568,25.23123903088379,8.435410000000001Q25.16072203088379,8.41402,25.09264103088379,8.38582Q25.02456003088379,8.35762,24.95957103088379,8.32288Q24.89458203088379,8.28814,24.833311030883788,8.2472Q24.77203903088379,8.20626,24.71507603088379,8.15952Q24.65811603088379,8.11277,24.60600603088379,8.06066Q24.553896030883788,8.00855,24.50714603088379,7.95159Q24.46040603088379,7.894627,24.41946603088379,7.833355Q24.37852603088379,7.7720839999999995,24.343786030883788,7.707095Q24.30904603088379,7.642106,24.28084603088379,7.574025Q24.25264603088379,7.5059439999999995,24.231256030883788,7.435427Q24.209866030883788,7.36491,24.19548603088379,7.292635Q24.18111603088379,7.220361,24.17388603088379,7.147026Q24.16666603088379,7.0736903,24.16666603088379,7Q24.16666603088379,6.9263097,24.17388603088379,6.852974Q24.18111603088379,6.779639,24.19548603088379,6.707365Q24.209866030883788,6.63509,24.231256030883788,6.564573Q24.25264603088379,6.4940560000000005,24.28084603088379,6.425975Q24.30904603088379,6.357894,24.343786030883788,6.292905Q24.37852603088379,6.2279160000000005,24.41946603088379,6.166645Q24.46040603088379,6.105373,24.50714603088379,6.04841Q24.553896030883788,5.99145,24.60600603088379,5.93934Q24.65811603088379,5.88723,24.71507603088379,5.8404799999999994Q24.77203903088379,5.79374,24.833311030883788,5.7528Q24.89458203088379,5.71186,24.95957103088379,5.67712Q25.02456003088379,5.64238,25.09264103088379,5.61418Q25.16072203088379,5.58598,25.23123903088379,5.56459Q25.30175603088379,5.5432,25.37403103088379,5.52882Q25.44630503088379,5.51445,25.51964003088379,5.50722Q25.59297573088379,5.5,25.66666603088379,5.5Z" fill-rule="evenodd" fill="#000000" fill-opacity="1"/></g><g><path d="M26.75,44.030485461767576L26.75,44.00520706176758L26.75,44.030485361767575Q26.75,44.091893961767575,26.75602,44.153007061767575Q26.76204,44.21412006176758,26.77402,44.274348061767576Q26.786,44.334577061767575,26.80382,44.39334106176758Q26.821649999999998,44.452105061767575,26.84515,44.50884006176758Q26.86865,44.56557406176758,26.8976,44.61973106176758Q26.92655,44.673889061767575,26.96066,44.72494806176758Q26.99478,44.77600706176758,27.033737,44.823477061767576Q27.072694,44.870946061767576,27.116117,44.91436906176758Q27.159539,44.95779106176758,27.207008,44.996748061767576Q27.254478,45.03570706176758,27.305537,45.069827061767576Q27.356597,45.10393706176758,27.410754,45.132887061767576Q27.464911999999998,45.16183706176758,27.521646,45.18533706176758Q27.57838,45.208837061767575,27.637144,45.226657061767575Q27.695909,45.24448706176758,27.756137,45.25646706176758Q27.816366,45.26844706176758,27.877479,45.27446706176758Q27.9385914,45.28048706176758,28,45.28048706176758Q28.0614086,45.28048706176758,28.122521,45.27446706176758Q28.183634,45.26844706176758,28.243863,45.25646706176758Q28.304091,45.24448706176758,28.362856,45.226657061767575Q28.42162,45.208837061767575,28.478354,45.18533706176758Q28.535088000000002,45.16183706176758,28.589246,45.132887061767576Q28.643403,45.10393706176758,28.694463,45.069827061767576Q28.745522,45.03570706176758,28.792992,44.996748061767576Q28.840461,44.95779106176758,28.883883,44.91436906176758Q28.927306,44.870946061767576,28.966263,44.823477061767576Q29.00522,44.77600706176758,29.03934,44.72494806176758Q29.07345,44.673889061767575,29.1024,44.61973106176758Q29.13135,44.56557406176758,29.15485,44.50884006176758Q29.178350000000002,44.452105061767575,29.19618,44.39334106176758Q29.214,44.334577061767575,29.22598,44.274348061767576Q29.23796,44.21412006176758,29.24398,44.153007061767575Q29.25,44.091893961767575,29.25,44.030485361767575L26.75,44.030485461767576Z" fill-rule="evenodd" fill="#000000" fill-opacity="1"/></g><g><line x1="15.166666984558105" y1="39.83333206176758" x2="40.833333015441895" y2="39.83333206176758" fill-opacity="0" stroke-opacity="1" stroke="#000000" fill="none" stroke-width="2"/></g></g></svg>