<svg xmlns="http://www.w3.org/2000/svg" xmlns:xlink="http://www.w3.org/1999/xlink" fill="none" version="1.1" width="56" height="56" viewBox="0 0 56 56"><defs><clipPath id="master_svg0_0_494/0_2805"><rect x="0" y="0" width="56" height="56" rx="0"/></clipPath></defs><g clip-path="url(#master_svg0_0_494/0_2805)"><g></g><g><path d="M6.976310223162842,9.309643915441894Q5.999999523162842,10.285955015441894,5.999999523162842,11.666663015441895L5.999999523162842,35.00003301544189Q5.999999523162842,36.38073301544189,6.976310523162842,37.3570330154419Q7.952617523162842,38.333333015441895,9.333329523162842,38.333333015441895L46.66669952316284,38.333333015441895Q48.047399523162845,38.333333015441895,49.02369952316284,37.3570330154419Q49.99999952316284,36.38073301544189,49.99999952316284,35.00003301544189L49.99999952316284,11.666663015441895Q49.99999952316284,10.285957015441895,49.02369952316284,9.309643615441894Q48.047399523162845,8.333333015441895,46.66669952316284,8.333333015441895L9.333329523162842,8.333333015441895Q7.952621523162842,8.333333015441895,6.976310223162842,9.309643915441894ZM7.999999523162842,35.00003301544189L7.999999523162842,11.666663015441895Q7.999999523162842,11.114383015441895,8.390519523162842,10.723853015441895Q8.781049523162842,10.333333015441895,9.333329523162842,10.333333015441895L46.66669952316284,10.333333015441895Q47.99999952316284,10.333333015441895,47.99999952316284,11.666663015441895L47.99999952316284,35.00003301544189Q47.99999952316284,36.333333015441895,46.66669952316284,36.333333015441895L9.333329523162842,36.333333015441895Q8.781049523162842,36.333333015441895,8.390519523162842,35.94283301544189Q7.999999523162842,35.552333015441896,7.999999523162842,35.00003301544189Z" fill-rule="evenodd" fill="#000000" fill-opacity="1"/></g><g><path d="M16.33333396911621,45.66666793823242L39.66663396911621,45.66666793823242Q39.76513396911621,45.66666793823242,39.861733969116216,45.685882938232425Q39.95833396911621,45.70509793823242,40.04933396911621,45.74278893823242Q40.14033396911621,45.780479938232425,40.22223396911621,45.83519793823242Q40.30413396911621,45.889916938232425,40.373733969116216,45.95956093823242Q40.443433969116214,46.029204938232425,40.49813396911621,46.11109793823242Q40.55283396911621,46.19298993823242,40.59053396911621,46.28398493823242Q40.62823396911621,46.374978938232424,40.64743396911621,46.47157793823242Q40.66663396911621,46.56817653823242,40.66663396911621,46.66666793823242Q40.66663396911621,46.76515933823242,40.64743396911621,46.86175793823242Q40.62823396911621,46.95835693823242,40.59053396911621,47.04935093823242Q40.55283396911621,47.14034593823242,40.49813396911621,47.222237938232425Q40.443433969116214,47.30413093823242,40.373733969116216,47.37377493823242Q40.30413396911621,47.44341893823242,40.22223396911621,47.498137938232425Q40.14033396911621,47.55285593823242,40.04933396911621,47.59054693823242Q39.95833396911621,47.628237938232424,39.861733969116216,47.64745293823242Q39.76513396911621,47.66666793823242,39.66663396911621,47.66666793823242L16.33333396911621,47.66666793823242Q16.23484256911621,47.66666793823242,16.13824396911621,47.64745293823242Q16.04164496911621,47.628237938232424,15.95065096911621,47.59054693823242Q15.859655969116211,47.55285593823242,15.777763969116211,47.498137938232425Q15.69587096911621,47.44341893823242,15.62622696911621,47.37377493823242Q15.55658296911621,47.30413093823242,15.501863969116211,47.222237938232425Q15.44714596911621,47.14034593823242,15.409454969116211,47.04935093823242Q15.371763969116211,46.95835693823242,15.35254896911621,46.86175793823242Q15.333333969116211,46.76515933823242,15.333333969116211,46.66666793823242Q15.333333969116211,46.56817653823242,15.35254896911621,46.47157793823242Q15.371763969116211,46.374978938232424,15.409454969116211,46.28398493823242Q15.44714596911621,46.19298993823242,15.501863969116211,46.11109793823242Q15.55658296911621,46.029204938232425,15.62622696911621,45.95956093823242Q15.69587096911621,45.889916938232425,15.777763969116211,45.83519793823242Q15.859655969116211,45.780479938232425,15.95065096911621,45.74278893823242Q16.04164496911621,45.70509793823242,16.13824396911621,45.685882938232425Q16.23484256911621,45.66666793823242,16.33333396911621,45.66666793823242Z" fill-rule="evenodd" fill="#000000" fill-opacity="1"/></g><g><path d="M20,37.33333206176758Q20,37.23484066176758,20.019215,37.13824206176758Q20.038429999999998,37.04164306176758,20.076121,36.95064906176758Q20.113812,36.85965406176758,20.16853,36.777762061767575Q20.223249,36.69586906176758,20.292893,36.62622506176758Q20.362537,36.55658106176758,20.44443,36.501862061767575Q20.526322,36.44714406176758,20.617317,36.40945306176758Q20.708311,36.371762061767576,20.80491,36.35254706176758Q20.9015086,36.33333206176758,21,36.33333206176758Q21.0984914,36.33333206176758,21.19509,36.35254706176758Q21.291689,36.371762061767576,21.382683,36.40945306176758Q21.473678,36.44714406176758,21.55557,36.501862061767575Q21.637463,36.55658106176758,21.707107,36.62622506176758Q21.776751,36.69586906176758,21.83147,36.777762061767575Q21.886188,36.85965406176758,21.923879,36.95064906176758Q21.961570000000002,37.04164306176758,21.980785,37.13824206176758Q22,37.23484066176758,22,37.33333206176758L22,46.66666206176758Q22,46.76515206176758,21.980785,46.861752061767575Q21.961570000000002,46.95835206176758,21.923879,47.04935206176758Q21.886188,47.140342061767576,21.83147,47.22223206176758Q21.776751,47.30412206176758,21.707107,47.373732061767576Q21.637463,47.44343206176758,21.55557,47.49813206176758Q21.473678,47.552832061767575,21.382683,47.590532061767576Q21.291689,47.62823206176758,21.19509,47.647432061767574Q21.0984914,47.66663206176758,21,47.66663206176758Q20.9015086,47.66663206176758,20.80491,47.647432061767574Q20.708311,47.62823206176758,20.617317,47.590532061767576Q20.526322,47.552832061767575,20.44443,47.49813206176758Q20.362537,47.44343206176758,20.292893,47.373732061767576Q20.223249,47.30412206176758,20.16853,47.22223206176758Q20.113812,47.140342061767576,20.076121,47.049342061767575Q20.038429999999998,46.95835206176758,20.019215,46.861752061767575Q20,46.76515206176758,20,46.66666206176758L20,37.33333206176758Z" fill-rule="evenodd" fill="#000000" fill-opacity="1"/></g><g><path d="M34,37.33333206176758Q34,37.23484066176758,34.019215,37.13824206176758Q34.03843,37.04164306176758,34.076121,36.95064906176758Q34.113812,36.85965406176758,34.16853,36.777762061767575Q34.223249,36.69586906176758,34.292893,36.62622506176758Q34.362537,36.55658106176758,34.44443,36.501862061767575Q34.526322,36.44714406176758,34.617317,36.40945306176758Q34.708311,36.371762061767576,34.80491,36.35254706176758Q34.9015086,36.33333206176758,35,36.33333206176758Q35.0984914,36.33333206176758,35.19509,36.35254706176758Q35.291689,36.371762061767576,35.382683,36.40945306176758Q35.473678,36.44714406176758,35.55557,36.501862061767575Q35.637463,36.55658106176758,35.707107,36.62622506176758Q35.776751,36.69586906176758,35.83147,36.777762061767575Q35.886188,36.85965406176758,35.923879,36.95064906176758Q35.96157,37.04164306176758,35.980785,37.13824206176758Q36,37.23484066176758,36,37.33333206176758L36,46.66666206176758Q36,46.76515206176758,35.980785,46.861752061767575Q35.96157,46.95835206176758,35.923879,47.04935206176758Q35.886188,47.140342061767576,35.83147,47.22223206176758Q35.776751,47.30412206176758,35.707107,47.373732061767576Q35.637463,47.44343206176758,35.55557,47.49813206176758Q35.473678,47.552832061767575,35.382683,47.590532061767576Q35.291689,47.62823206176758,35.19509,47.647432061767574Q35.0984914,47.66663206176758,35,47.66663206176758Q34.9015086,47.66663206176758,34.80491,47.647432061767574Q34.708311,47.62823206176758,34.617317,47.590532061767576Q34.526322,47.552832061767575,34.44443,47.49813206176758Q34.362537,47.44343206176758,34.292893,47.373732061767576Q34.223249,47.30412206176758,34.16853,47.22223206176758Q34.113812,47.140342061767576,34.076121,47.049342061767575Q34.03843,46.95835206176758,34.019215,46.861752061767575Q34,46.76515206176758,34,46.66666206176758L34,37.33333206176758Z" fill-rule="evenodd" fill="#000000" fill-opacity="1"/></g><g><path d="M48,33L8,33L8,31L48,31L48,33Z" fill-rule="evenodd" fill="#000000" fill-opacity="1"/></g></g></svg>