<svg xmlns="http://www.w3.org/2000/svg" xmlns:xlink="http://www.w3.org/1999/xlink" fill="none" version="1.1" width="56" height="56" viewBox="0 0 56 56"><defs><clipPath id="master_svg0_0_508/0_2846"><rect x="0" y="0" width="56" height="56" rx="0"/></clipPath></defs><g clip-path="url(#master_svg0_0_508/0_2846)"><g></g><g><path d="M5.326394507720948,14.659729Q3.6666665077209473,16.31946,3.6666665077209473,18.66667L3.6666665077209473,37.3333Q3.6666665077209473,39.680499999999995,5.326394507720948,41.3403Q6.986116507720947,43,9.333336507720947,43L46.66666650772095,43Q49.01386650772095,43,50.67356650772095,41.3403Q52.333366507720946,39.680499999999995,52.333366507720946,37.3333L52.333366507720946,18.66667Q52.333366507720946,16.31945,50.67356650772095,14.659728Q49.01386650772095,13,46.66666650772095,13L9.333336507720947,13Q6.986126507720947,13,5.326394507720948,14.659729ZM5.666666507720947,37.3333L5.666666507720947,18.66667Q5.666666507720947,17.14788,6.740606507720948,16.07394Q7.814546507720947,15,9.333336507720947,15L46.66666650772095,15Q48.185466507720946,15,49.25936650772095,16.07394Q50.333366507720946,17.14788,50.333366507720946,18.66667L50.333366507720946,37.3333Q50.333366507720946,38.8521,49.25936650772095,39.926100000000005Q48.185466507720946,41,46.66666650772095,41L9.333336507720947,41Q7.814546507720947,41,6.740606507720948,39.926100000000005Q5.666666507720947,38.8521,5.666666507720947,37.3333Z" fill-rule="evenodd" fill="#000000" fill-opacity="1"/></g><g><path d="M17.66667,23.333332061767578Q17.66667,23.234840661767578,17.68588,23.138242061767578Q17.7051,23.041643061767576,17.74279,22.950649061767578Q17.78048,22.85965406176758,17.8352,22.77776206176758Q17.88992,22.695869061767578,17.95956,22.626225061767578Q18.0292,22.556581061767577,18.1111,22.50186206176758Q18.19299,22.447144061767577,18.28398,22.40945306176758Q18.37498,22.371762061767576,18.47158,22.352547061767577Q18.568179999999998,22.333332061767578,18.66667,22.333332061767578Q18.76516,22.333332061767578,18.86176,22.352547061767577Q18.95836,22.371762061767576,19.04935,22.40945306176758Q19.140340000000002,22.447144061767577,19.22224,22.50186206176758Q19.30413,22.556581061767577,19.37377,22.626225061767578Q19.44342,22.695869061767578,19.49814,22.77776206176758Q19.55285,22.85965406176758,19.59055,22.950649061767578Q19.628239999999998,23.041643061767576,19.64745,23.138242061767578Q19.66667,23.234840661767578,19.66667,23.333332061767578L19.66667,27.000002061767578L23.33333,27.000002061767578Q23.431820000000002,27.000002061767578,23.52842,27.01921206176758Q23.62502,27.03843206176758,23.71602,27.076122061767578Q23.80701,27.11381206176758,23.8889,27.16853206176758Q23.97079,27.223252061767578,24.040399999999998,27.292892061767578Q24.1101,27.362532061767578,24.1648,27.44443206176758Q24.2195,27.52632206176758,24.257199999999997,27.617312061767578Q24.2949,27.70831206176758,24.3141,27.804912061767578Q24.3333,27.901512061767576,24.3333,28.000002061767578Q24.3333,28.09849206176758,24.3141,28.19509206176758Q24.2949,28.291692061767577,24.257199999999997,28.38268206176758Q24.2195,28.47367206176758,24.1648,28.555572061767577Q24.1101,28.63746206176758,24.040399999999998,28.70710206176758Q23.97079,28.776752061767578,23.8889,28.831472061767577Q23.80701,28.886182061767578,23.71602,28.92388206176758Q23.62502,28.961572061767576,23.52842,28.980782061767577Q23.431820000000002,29.000002061767578,23.33333,29.000002061767578L19.66667,29.000002061767578L19.66667,32.66666206176758Q19.66667,32.76515206176758,19.64745,32.861752061767575Q19.628239999999998,32.95835206176758,19.59055,33.04935206176758Q19.55285,33.140342061767576,19.49814,33.22223206176758Q19.44342,33.30412206176758,19.37377,33.373732061767576Q19.30413,33.44343206176758,19.22224,33.49813206176758Q19.140340000000002,33.552832061767575,19.04935,33.590532061767576Q18.95836,33.62823206176758,18.86176,33.647432061767574Q18.76516,33.66663206176758,18.66667,33.66663206176758Q18.568179999999998,33.66663206176758,18.47158,33.647432061767574Q18.37498,33.62823206176758,18.28398,33.590532061767576Q18.19299,33.552832061767575,18.1111,33.49813206176758Q18.0292,33.44343206176758,17.95956,33.373732061767576Q17.88992,33.30412206176758,17.8352,33.22223206176758Q17.78048,33.140342061767576,17.74279,33.04935206176758Q17.7051,32.95835206176758,17.68588,32.861752061767575Q17.66667,32.76515206176758,17.66667,32.66666206176758L17.66667,29.000002061767578L14,29.000002061767578Q13.9015086,29.000002061767578,13.80491,28.980782061767577Q13.708311,28.961572061767576,13.617317,28.92388206176758Q13.526322,28.886182061767578,13.44443,28.831472061767577Q13.362537,28.776752061767578,13.292893,28.70710206176758Q13.223249,28.63746206176758,13.16853,28.555572061767577Q13.113812,28.47367206176758,13.076121,28.38268206176758Q13.03843,28.291692061767577,13.019214999999999,28.19509206176758Q13,28.09849206176758,13,28.000002061767578Q13,27.901512061767576,13.019214999999999,27.804912061767578Q13.03843,27.70831206176758,13.076121,27.617312061767578Q13.113812,27.52632206176758,13.16853,27.44443206176758Q13.223249,27.362532061767578,13.292893,27.292892061767578Q13.362537,27.223252061767578,13.44443,27.16853206176758Q13.526322,27.11381206176758,13.617317,27.076122061767578Q13.708311,27.03843206176758,13.80491,27.01921206176758Q13.9015086,27.000002061767578,14,27.000002061767578L17.66667,27.000002061767578L17.66667,23.333332061767578L17.66667,23.333332061767578Z" fill-rule="evenodd" fill="#000000" fill-opacity="1"/></g><g><path d="M36.5,25.666667938232422L36.5,25.690835138232423L36.49981,25.690835138232423Q36.49863,25.76375893823242,36.49039,25.836224938232423Q36.48214,25.90869093823242,36.46691,25.980014938232422Q36.45167,26.051338938232423,36.42959,26.120847938232423Q36.4075,26.19035793823242,36.37878,26.25739693823242Q36.35006,26.324436938232424,36.31497,26.388372938232422Q36.27988,26.45230993823242,36.23875,26.512540938232423Q36.19762,26.572770938232424,36.15084,26.628727938232423Q36.10407,26.684687938232422,36.05208,26.73583793823242Q36.0001,26.78699793823242,35.943393,26.832857938232422Q35.88669,26.878727938232423,35.825805,26.918887938232423Q35.764919,26.95903793823242,35.700426,26.99309793823242Q35.635932,27.02714793823242,35.568438,27.054787938232423Q35.500945,27.08242793823242,35.431089,27.103387938232423Q35.361232,27.12434793823242,35.289672,27.13842793823242Q35.218112,27.15251793823242,35.145522,27.159587938232423Q35.0729332,27.166667938232422,35,27.166667938232422Q34.9270668,27.166667938232422,34.854478,27.159587938232423Q34.781888,27.15251793823242,34.710328,27.13842793823242Q34.638768,27.12434793823242,34.568911,27.103387938232423Q34.499055,27.08242793823242,34.431562,27.054787938232423Q34.364068,27.02714793823242,34.299575,26.99309793823242Q34.235081,26.95903793823242,34.174195,26.918887938232423Q34.11331,26.878727938232423,34.056607,26.832857938232422Q33.9999,26.78699793823242,33.94792,26.73583793823242Q33.89593,26.684687938232422,33.84916,26.628727938232423Q33.80238,26.572770938232424,33.76125,26.512540938232423Q33.72012,26.45230993823242,33.68503,26.388372938232422Q33.64994,26.324436938232424,33.62122,26.25739693823242Q33.5925,26.19035793823242,33.57041,26.120847938232423Q33.54833,26.051338938232423,33.53309,25.980014938232422Q33.51786,25.90869093823242,33.50961,25.836224938232423Q33.50137,25.76375893823242,33.50019,25.690835138232423L33.5,25.690835138232423L33.5,25.666667938232422L33.50019,25.666667938232422Q33.50137,25.59374413823242,33.50961,25.521277938232423Q33.51786,25.44881293823242,33.53309,25.37748893823242Q33.54833,25.306163938232423,33.57041,25.236654938232423Q33.5925,25.167144938232422,33.62122,25.10010593823242Q33.64994,25.033066938232423,33.68503,24.96912993823242Q33.72012,24.90519293823242,33.76125,24.84496293823242Q33.80238,24.784731938232422,33.84916,24.72877593823242Q33.89593,24.67281893823242,33.94792,24.62166793823242Q33.9999,24.57050793823242,34.056607,24.524637938232424Q34.11331,24.478767938232423,34.174195,24.438617938232422Q34.235081,24.39846793823242,34.299574,24.36440793823242Q34.364068,24.33035793823242,34.431562,24.302717938232423Q34.499055,24.27507793823242,34.568911,24.254117938232422Q34.638768,24.233157938232424,34.710328,24.21906793823242Q34.781888,24.20498793823242,34.854478,24.197907938232422Q34.9270668,24.190837938232423,35,24.190837938232423Q35.0729332,24.190837938232423,35.145522,24.197907938232422Q35.218112,24.20498793823242,35.289672,24.21906793823242Q35.361232,24.233157938232424,35.431089,24.254117938232422Q35.500945,24.27507793823242,35.568438,24.302717938232423Q35.635932,24.33035793823242,35.700425,24.36440793823242Q35.764919,24.39846793823242,35.825805,24.438617938232422Q35.88669,24.478767938232423,35.943393,24.524637938232424Q36.0001,24.57050793823242,36.05208,24.62166793823242Q36.10407,24.67281893823242,36.15084,24.72877593823242Q36.19762,24.784731938232422,36.23875,24.84496293823242Q36.27988,24.90519293823242,36.31497,24.96912993823242Q36.35006,25.033066938232423,36.37878,25.10010593823242Q36.4075,25.167144938232422,36.42959,25.236654938232423Q36.45167,25.306163938232423,36.46691,25.37748893823242Q36.48214,25.44881293823242,36.49039,25.521277938232423Q36.49863,25.59374413823242,36.49981,25.666667938232422L36.5,25.690835138232423Q36.5,25.76452533823242,36.49278,25.83786093823242Q36.48555,25.91119593823242,36.47118,25.983470938232422Q36.4568,26.055744938232422,36.43541,26.12626193823242Q36.41402,26.196778938232423,36.38582,26.264859938232423Q36.35762,26.332940938232422,36.32288,26.397929938232423Q36.28814,26.462918938232423,36.2472,26.52418993823242Q36.20626,26.58546193823242,36.15952,26.642424938232423Q36.11277,26.699387938232423,36.06066,26.751497938232422Q36.00855,26.80359793823242,35.95159,26.85034793823242Q35.894627,26.89709793823242,35.833355,26.938037938232423Q35.772084,26.978977938232422,35.707095,27.01371793823242Q35.642106,27.04845793823242,35.574025,27.076657938232422Q35.505944,27.10485793823242,35.435427,27.12624793823242Q35.36491,27.14763793823242,35.292635,27.16200793823242Q35.220361,27.176387938232423,35.147026,27.18360793823242Q35.0736903,27.190837938232423,35,27.190837938232423Q34.9263097,27.190837938232423,34.852974,27.18360793823242Q34.779639,27.176387938232423,34.707365,27.16200793823242Q34.63509,27.14763793823242,34.564573,27.12624793823242Q34.494056,27.10485793823242,34.425975,27.076657938232422Q34.357894,27.04845793823242,34.292905,27.01371793823242Q34.227916,26.978977938232422,34.166645,26.938037938232423Q34.105373,26.89709793823242,34.04841,26.85034793823242Q33.99145,26.80359793823242,33.93934,26.751497938232422Q33.88723,26.699387938232423,33.84048,26.642424938232423Q33.79374,26.58546193823242,33.7528,26.52418993823242Q33.71186,26.462918938232423,33.67712,26.397929938232423Q33.64238,26.332940938232422,33.61418,26.264859938232423Q33.58598,26.196778938232423,33.56459,26.12626193823242Q33.5432,26.055744938232422,33.52882,25.983470938232422Q33.51445,25.91119593823242,33.50722,25.83786093823242Q33.5,25.76452533823242,33.5,25.690835138232423L33.50005,25.678751538232422Q33.50005,25.60446763823242,33.50727,25.530540938232424Q33.51449,25.456614938232423,33.52886,25.383758938232422Q33.54324,25.310901938232423,33.56462,25.239816938232423Q33.58601,25.168731938232423,33.61421,25.10010193823242Q33.64241,25.031472938232422,33.67714,24.965959938232423Q33.71188,24.90044793823242,33.75282,24.838682938232424Q33.79376,24.776917938232423,33.8405,24.719495938232424Q33.88725,24.66207793823242,33.93935,24.60954793823242Q33.991460000000004,24.557017938232423,34.048421,24.50989793823242Q34.105383,24.46276793823242,34.166653,24.42149793823242Q34.227923,24.380227938232423,34.292911,24.34520793823242Q34.357899,24.31019793823242,34.425979,24.28176793823242Q34.494059,24.253337938232423,34.564575,24.231777938232423Q34.635092,24.21021793823242,34.707366,24.195717938232423Q34.779639,24.18122793823242,34.852975,24.173947938232423Q34.9263097,24.166667938232422,35,24.166667938232422Q35.0736903,24.166667938232422,35.147026,24.173887938232422Q35.220361,24.181117938232422,35.292635,24.19548793823242Q35.36491,24.20986793823242,35.435427,24.23125793823242Q35.505944,24.25264793823242,35.574025,24.280847938232423Q35.642106,24.30904793823242,35.707095,24.34378793823242Q35.772084,24.378527938232423,35.833355,24.419467938232422Q35.894627,24.46040793823242,35.95159,24.50714793823242Q36.00855,24.55389793823242,36.06066,24.606007938232423Q36.11277,24.658117938232422,36.15952,24.715077938232422Q36.20626,24.772040938232422,36.2472,24.83331293823242Q36.28814,24.894583938232422,36.32288,24.959572938232423Q36.35762,25.024561938232424,36.38582,25.092642938232423Q36.41402,25.160723938232422,36.43541,25.23124093823242Q36.4568,25.301757938232424,36.47118,25.37403293823242Q36.48555,25.44630693823242,36.49278,25.51964193823242Q36.5,25.592977638232423,36.5,25.666667938232422Z" fill-rule="evenodd" fill="#000000" fill-opacity="1"/></g><g><path d="M43.5,30.333251953125L43.5,30.357419153125L43.49981,30.357419153125Q43.49863,30.430342953125,43.49039,30.502808953125Q43.48214,30.575274953125,43.46691,30.646598953125Q43.45167,30.717922953125,43.42959,30.787431953125Q43.4075,30.856941953125,43.37878,30.923980953125Q43.35006,30.991020953125002,43.31497,31.054956953125Q43.27988,31.118893953125,43.23875,31.179124953125Q43.19762,31.239354953125,43.15084,31.295311953125Q43.10407,31.351271953125,43.05208,31.402421953125Q43.0001,31.453581953125,42.943393,31.499441953125Q42.88669,31.545311953125,42.825805,31.585471953125Q42.764919,31.625621953125,42.700426,31.659681953125Q42.635932,31.693731953125,42.568438,31.721371953125Q42.500945,31.749011953125,42.431089,31.769971953125Q42.361232,31.790931953125,42.289672,31.805011953125Q42.218112,31.819101953125,42.145522,31.826171953125Q42.0729332,31.833251953125,42,31.833251953125Q41.9270668,31.833251953125,41.854478,31.826171953125Q41.781888,31.819101953125,41.710328,31.805011953125Q41.638768,31.790931953125,41.568911,31.769971953125Q41.499055,31.749011953125,41.431562,31.721371953125Q41.364068,31.693731953125,41.299575,31.659681953125Q41.235081,31.625621953125,41.174195,31.585471953125Q41.11331,31.545311953125,41.056607,31.499441953125Q40.9999,31.453581953125,40.94792,31.402421953125Q40.89593,31.351271953125,40.84916,31.295311953125Q40.80238,31.239354953125,40.76125,31.179124953125Q40.72012,31.118893953125,40.68503,31.054956953125Q40.64994,30.991020953125002,40.62122,30.923980953125Q40.5925,30.856941953125,40.57041,30.787431953125Q40.54833,30.717922953125,40.53309,30.646598953125Q40.51786,30.575274953125,40.50961,30.502808953125Q40.50137,30.430342953125,40.50019,30.357419153125L40.5,30.357419153125L40.5,30.333251953125L40.50019,30.333251953125Q40.50137,30.260328153125,40.50961,30.187861953125Q40.51786,30.115396953125,40.53309,30.044072953125Q40.54833,29.972747953125,40.57041,29.903238953125Q40.5925,29.833728953125,40.62122,29.766689953125Q40.64994,29.699650953125,40.68503,29.635713953125Q40.72012,29.571776953125,40.76125,29.511546953125Q40.80238,29.451315953125,40.84916,29.395359953125Q40.89593,29.339402953125,40.94792,29.288251953125Q40.9999,29.237091953125,41.056607,29.191221953125Q41.11331,29.145351953125,41.174195,29.105201953125Q41.235081,29.065051953125,41.299574,29.030991953125Q41.364068,28.996941953125,41.431562,28.969301953125Q41.499055,28.941661953125,41.568911,28.920701953125Q41.638768,28.899741953125,41.710328,28.885651953125Q41.781888,28.871571953125,41.854478,28.864491953125Q41.9270668,28.857421953125,42,28.857421953125Q42.0729332,28.857421953125,42.145522,28.864491953125Q42.218112,28.871571953125,42.289672,28.885651953125Q42.361232,28.899741953125,42.431089,28.920701953125Q42.500945,28.941661953125,42.568438,28.969301953125Q42.635932,28.996941953125,42.700425,29.030991953125Q42.764919,29.065051953125,42.825805,29.105201953125Q42.88669,29.145351953125,42.943393,29.191221953125Q43.0001,29.237091953125,43.05208,29.288251953125Q43.10407,29.339402953125,43.15084,29.395359953125Q43.19762,29.451315953125,43.23875,29.511546953125Q43.27988,29.571776953125,43.31497,29.635713953125Q43.35006,29.699650953125,43.37878,29.766689953125Q43.4075,29.833728953125,43.42959,29.903238953125Q43.45167,29.972747953125,43.46691,30.044072953125Q43.48214,30.115396953125,43.49039,30.187861953125Q43.49863,30.260328153125,43.49981,30.333251953125L43.5,30.357419153125Q43.5,30.431109353125,43.49278,30.504444953125Q43.48555,30.577779953125,43.47118,30.650054953125Q43.4568,30.722328953125,43.43541,30.792845953125Q43.41402,30.863362953125,43.38582,30.931443953125Q43.35762,30.999524953125,43.32288,31.064513953125Q43.28814,31.129502953125,43.2472,31.190773953125Q43.20626,31.252045953125,43.15952,31.309008953125Q43.11277,31.365971953125,43.06066,31.418081953125Q43.00855,31.470181953125,42.95159,31.516931953125Q42.894627,31.563681953125,42.833355,31.604621953125Q42.772084,31.645561953125,42.707095,31.680301953125Q42.642106,31.715041953125,42.574025,31.743241953125Q42.505944,31.771441953125,42.435427,31.792831953125Q42.36491,31.814221953125,42.292635,31.828591953125Q42.220361,31.842971953125,42.147026,31.850191953124998Q42.0736903,31.857421953125,42,31.857421953125Q41.9263097,31.857421953125,41.852974,31.850191953124998Q41.779639,31.842971953125,41.707365,31.828591953125Q41.63509,31.814221953125,41.564573,31.792831953125Q41.494056,31.771441953125,41.425975,31.743241953125Q41.357894,31.715041953125,41.292905,31.680301953125Q41.227916,31.645561953125,41.166645,31.604621953125Q41.105373,31.563681953125,41.04841,31.516931953125Q40.99145,31.470181953125,40.93934,31.418081953125Q40.88723,31.365971953125,40.84048,31.309008953125Q40.79374,31.252045953125,40.7528,31.190773953125Q40.71186,31.129502953125,40.67712,31.064513953125Q40.64238,30.999524953125,40.61418,30.931443953125Q40.58598,30.863362953125,40.56459,30.792845953125Q40.5432,30.722328953125,40.52882,30.650054953125Q40.51445,30.577779953125,40.50722,30.504444953125Q40.5,30.431109353125,40.5,30.357419153125L40.50005,30.345335553125Q40.50005,30.271051653125,40.50727,30.197124953125Q40.51449,30.123198953125,40.52886,30.050342953125Q40.54324,29.977485953125,40.56462,29.906400953125Q40.58601,29.835315953125,40.61421,29.766685953125Q40.64241,29.698056953125,40.67714,29.632543953125Q40.71188,29.567031953125,40.75282,29.505266953125002Q40.79376,29.443501953125,40.8405,29.386079953125Q40.88725,29.328661953125,40.93935,29.276131953125Q40.991460000000004,29.223601953125,41.048421,29.176481953125Q41.105383,29.129351953125,41.166653,29.088081953125Q41.227923,29.046811953125,41.292911,29.011791953124998Q41.357899,28.976781953125,41.425979,28.948351953124998Q41.494059,28.919921953125,41.564575,28.898361953125Q41.635092,28.876801953125,41.707366,28.862301953125Q41.779639,28.847811953125,41.852975,28.840531953125Q41.9263097,28.833251953125,42,28.833251953125Q42.0736903,28.833251953125,42.147026,28.840471953125Q42.220361,28.847701953125,42.292635,28.862071953125Q42.36491,28.876451953125,42.435427,28.897841953125Q42.505944,28.919231953125,42.574025,28.947431953125Q42.642106,28.975631953125,42.707095,29.010371953125Q42.772084,29.045111953125,42.833355,29.086051953125Q42.894627,29.126991953125,42.95159,29.173731953125Q43.00855,29.220481953125,43.06066,29.272591953125Q43.11277,29.324701953125,43.15952,29.381661953125Q43.20626,29.438624953125,43.2472,29.499896953125Q43.28814,29.561167953125,43.32288,29.626156953125Q43.35762,29.691145953125,43.38582,29.759226953125Q43.41402,29.827307953125,43.43541,29.897824953125Q43.4568,29.968341953125,43.47118,30.040616953125Q43.48555,30.112890953125,43.49278,30.186225953125Q43.5,30.259561653125,43.5,30.333251953125Z" fill-rule="evenodd" fill="#000000" fill-opacity="1"/></g></g></svg>