<svg xmlns="http://www.w3.org/2000/svg" xmlns:xlink="http://www.w3.org/1999/xlink" fill="none" version="1.1" width="56" height="56" viewBox="0 0 56 56"><defs><clipPath id="master_svg0_0_504/0_2837"><rect x="0" y="0" width="56" height="56" rx="0"/></clipPath></defs><g clip-path="url(#master_svg0_0_504/0_2837)"><g></g><g><path d="M9.993061015441894,30.993061969116212Q8.333333015441895,32.65279396911621,8.333333015441895,35.00000396911621L8.333333015441895,42.00003396911621Q8.333333015441895,44.34723396911621,9.993061015441894,46.00693396911621Q11.652793015441894,47.66663396911621,14.000003015441894,47.66663396911621L16.333333015441895,47.66663396911621Q18.680543015441895,47.66663396911621,20.340233015441896,46.00693396911621Q22.000033015441893,44.34723396911621,22.000033015441893,42.00003396911621L22.000033015441893,35.00000396911621Q22.000033015441893,32.65279396911621,20.340233015441896,30.993061969116212Q18.680543015441895,29.33333396911621,16.333333015441895,29.33333396911621L14.000003015441894,29.33333396911621Q11.652793015441894,29.33333396911621,9.993061015441894,30.993061969116212ZM10.333333015441895,42.00003396911621L10.333333015441895,35.00000396911621Q10.333333015441895,33.48121396911621,11.407273015441895,32.40727396911621Q12.481213015441895,31.33333396911621,14.000003015441894,31.33333396911621L16.333333015441895,31.33333396911621Q17.852113015441894,31.33333396911621,18.926053015441894,32.40727396911621Q20.000033015441893,33.48121396911621,20.000033015441893,35.00000396911621L20.000033015441893,42.00003396911621Q20.000033015441893,43.51883396911621,18.926053015441894,44.59273396911621Q17.852113015441894,45.66663396911621,16.333333015441895,45.66663396911621L14.000003015441894,45.66663396911621Q12.481223015441895,45.66663396911621,11.407273015441895,44.59273396911621Q10.333333015441895,43.51883396911621,10.333333015441895,42.00003396911621Z" fill-rule="evenodd" fill="#000000" fill-opacity="1"/></g><g><path d="M35.659728,30.993061969116212Q34,32.65279396911621,34,35.00000396911621L34,42.00003396911621Q34,44.34723396911621,35.659728,46.00693396911621Q37.31946,47.66663396911621,39.666669999999996,47.66663396911621L42,47.66663396911621Q44.347210000000004,47.66663396911621,46.0069,46.00693396911621Q47.6667,44.34723396911621,47.6667,42.00003396911621L47.6667,35.00000396911621Q47.6667,32.65279396911621,46.0069,30.993061969116212Q44.347210000000004,29.33333396911621,42,29.33333396911621L39.666669999999996,29.33333396911621Q37.31946,29.33333396911621,35.659728,30.993061969116212ZM36,42.00003396911621L36,35.00000396911621Q36,33.48121396911621,37.07394,32.40727396911621Q38.14788,31.33333396911621,39.666669999999996,31.33333396911621L42,31.33333396911621Q43.51878,31.33333396911621,44.59272,32.40727396911621Q45.6667,33.48121396911621,45.6667,35.00000396911621L45.6667,42.00003396911621Q45.6667,43.51883396911621,44.59272,44.59273396911621Q43.51878,45.66663396911621,42,45.66663396911621L39.666669999999996,45.66663396911621Q38.14789,45.66663396911621,37.07394,44.59273396911621Q36,43.51883396911621,36,42.00003396911621Z" fill-rule="evenodd" fill="#000000" fill-opacity="1"/></g><g><path d="M45.666633015441896,28.000033015441893L45.666633015441896,35.00003301544189Q45.666633015441896,35.098533015441895,45.685833015441894,35.1951330154419Q45.705133015441895,35.29173301544189,45.742833015441896,35.3826330154419Q45.78043301544189,35.47363301544189,45.835233015441894,35.555533015441895Q45.8899330154419,35.63743301544189,45.95953301544189,35.7071330154419Q46.029233015441896,35.77673301544189,46.111133015441894,35.831433015441895Q46.192933015441895,35.886233015441896,46.283933015441896,35.92383301544189Q46.3749330154419,35.961533015441894,46.47153301544189,35.9807330154419Q46.568133015441894,36.00003301544189,46.666633015441896,36.00003301544189Q46.7651330154419,36.00003301544189,46.86173301544189,35.980833015441895Q46.958333015441895,35.961533015441894,47.049333015441896,35.92383301544189Q47.1403330154419,35.886233015441896,47.222233015441894,35.831433015441895Q47.30413301544189,35.77673301544189,47.37373301544189,35.7071330154419Q47.4434330154419,35.63743301544189,47.498133015441894,35.555533015441895Q47.55283301544189,35.47363301544189,47.59053301544189,35.3826330154419Q47.62823301544189,35.29173301544189,47.6474330154419,35.1951330154419Q47.666633015441896,35.098533015441895,47.666633015441896,35.00003301544189L47.666633015441896,28.000033015441893Q47.666633015441896,19.853833015441893,41.90643301544189,14.093573015441894Q36.146233015441894,8.333336015441894,28.000033015441893,8.333333015441895Q19.853833015441893,8.333333015441895,14.093563015441894,14.093563015441894Q8.333333015441895,19.853833015441893,8.333334015441894,28.000033015441893L8.333333015441895,35.00003301544189Q8.333333015441895,35.098533015441895,8.352548015441894,35.1951330154419Q8.371763015441894,35.29173301544189,8.409454015441895,35.3826330154419Q8.447145015441894,35.47363301544189,8.501863015441895,35.555533015441895Q8.556582015441894,35.63743301544189,8.626226015441894,35.7071330154419Q8.695870015441894,35.77673301544189,8.777763015441895,35.831433015441895Q8.859655015441895,35.886233015441896,8.950650015441894,35.92383301544189Q9.041644015441895,35.961533015441894,9.138243015441894,35.9807330154419Q9.234841615441894,36.00003301544189,9.333333015441895,36.00003301544189Q9.431824415441895,36.00003301544189,9.528423015441895,35.980833015441895Q9.625022015441894,35.961533015441894,9.716016015441895,35.92383301544189Q9.807011015441894,35.886233015441896,9.888903015441894,35.831433015441895Q9.970796015441895,35.77673301544189,10.040440015441895,35.7071330154419Q10.110084015441895,35.63743301544189,10.164803015441894,35.555533015441895Q10.219521015441895,35.47363301544189,10.257212015441894,35.3826330154419Q10.294903015441895,35.29173301544189,10.314118015441895,35.1951330154419Q10.333333015441895,35.098533015441895,10.333333015441895,35.00003301544189L10.333333015441895,28.000033015441893Q10.333333015441895,20.682233015441895,15.507783015441895,15.507783015441895Q20.682233015441895,10.333333015441895,28.000033015441893,10.333333015441895Q35.317733015441895,10.333333015441895,40.4922330154419,15.507783015441895Q45.666633015441896,20.682233015441895,45.666633015441896,28.000033015441893Z" fill-rule="evenodd" fill="#000000" fill-opacity="1"/></g></g></svg>