<svg xmlns="http://www.w3.org/2000/svg" xmlns:xlink="http://www.w3.org/1999/xlink" fill="none" version="1.1" width="56" height="56" viewBox="0 0 56 56"><defs><clipPath id="master_svg0_0_498/0_2816"><rect x="0" y="0" width="56" height="56" rx="0"/></clipPath></defs><g clip-path="url(#master_svg0_0_498/0_2816)"><g></g><g><path d="M15.34315,15.34315Q13,17.68629,13,21L13.000001,35Q13,38.3137,15.34315,40.6569Q17.68629,43,21,43L35,43Q38.3137,43,40.6569,40.6569Q43,38.3137,43,35L43,21Q43,17.68629,40.6569,15.34315Q38.3137,13,35,13L21,13.000001Q17.68629,13,15.34315,15.34315ZM15,35L15,21Q15,18.51472,16.75736,16.75736Q18.51472,15,21,15L35,15Q37.485299999999995,15,39.242599999999996,16.75736Q41,18.51472,41,21L41,35Q41,37.485299999999995,39.242599999999996,39.242599999999996Q37.485299999999995,41,35,41L21,41Q18.51472,41,16.75736,39.242599999999996Q15,37.485299999999995,15,35Z" fill-rule="evenodd" fill="#000000" fill-opacity="1"/></g><g><path d="M20,42Q20,41.9015086,20.019215,41.80491Q20.038429999999998,41.708311,20.076121,41.617317Q20.113812,41.526322,20.16853,41.44443Q20.223249,41.362537,20.292893,41.292893Q20.362537,41.223249,20.44443,41.16853Q20.526322,41.113812,20.617317,41.076121Q20.708311,41.03843,20.80491,41.019215Q20.9015086,41,21,41Q21.0984914,41,21.19509,41.019215Q21.291689,41.03843,21.382683,41.076121Q21.473678,41.113812,21.55557,41.16853Q21.637463,41.223249,21.707107,41.292893Q21.776751,41.362537,21.83147,41.44443Q21.886188,41.526322,21.923879,41.617317Q21.961570000000002,41.708311,21.980785,41.80491Q22,41.9015086,22,42L22,48L34,48L34,42Q34,41.9015086,34.0192,41.80491Q34.038399999999996,41.708311,34.0761,41.617317Q34.1138,41.526322,34.1685,41.44443Q34.2232,41.362537,34.2929,41.292893Q34.3625,41.223249,34.4444,41.16853Q34.5263,41.113812,34.6173,41.076121Q34.7083,41.03843,34.8049,41.019215Q34.9015,41,35,41Q35.0985,41,35.1951,41.019215Q35.2917,41.03843,35.3827,41.076121Q35.4737,41.113812,35.5556,41.16853Q35.6375,41.223249,35.7071,41.292893Q35.7767,41.362537,35.8315,41.44443Q35.8862,41.526322,35.9239,41.617317Q35.961600000000004,41.708311,35.9808,41.80491Q36,41.9015086,36,42L36,42.00195312L36,49Q36,49.09849,35.9808,49.19509Q35.961600000000004,49.29169,35.9239,49.38268Q35.8862,49.47368,35.8315,49.55557Q35.7767,49.63746,35.7071,49.70711Q35.6375,49.77675,35.5556,49.83147Q35.4737,49.88619,35.3827,49.92388Q35.2917,49.96157,35.1951,49.98078Q35.0985,50,35,50L21,50Q20.9015086,50,20.80491,49.98078Q20.708311,49.96157,20.617317,49.92388Q20.526322,49.88619,20.44443,49.83147Q20.362537,49.77675,20.292893,49.70711Q20.223249,49.63746,20.16853,49.55557Q20.113812,49.47368,20.076121,49.38268Q20.038429999999998,49.29169,20.019215,49.19509Q20,49.09849,20,49L20,42Z" fill-rule="evenodd" fill="#000000" fill-opacity="1"/></g><g><path d="M34,7.999999523162842L34,13.999999523162842Q34,14.098489523162842,34.0192,14.195089523162842Q34.038399999999996,14.291689523162841,34.0761,14.382679523162842Q34.1138,14.473679523162842,34.1685,14.555569523162841Q34.2232,14.637459523162843,34.2929,14.707109523162842Q34.3625,14.776749523162842,34.4444,14.831469523162841Q34.5263,14.886189523162841,34.6173,14.923879523162842Q34.7083,14.961569523162842,34.8049,14.980779523162841Q34.9015,14.999999523162842,35,14.999999523162842Q35.0985,14.999999523162842,35.1951,14.980779523162841Q35.2917,14.961569523162842,35.3827,14.923879523162842Q35.4737,14.886189523162841,35.5556,14.831469523162841Q35.6375,14.776749523162842,35.7071,14.707109523162842Q35.7767,14.637459523162843,35.8315,14.555569523162841Q35.8862,14.473679523162842,35.9239,14.382679523162842Q35.961600000000004,14.291689523162841,35.9808,14.195089523162842Q36,14.098489523162842,36,13.999999523162842L36,13.998049523162841L36,6.999999523162842Q36,6.9015081231628415,35.9808,6.804909523162841Q35.961600000000004,6.708310523162842,35.9239,6.617316523162842Q35.8862,6.526321523162842,35.8315,6.4444295231628415Q35.7767,6.3625365231628415,35.7071,6.292892523162842Q35.6375,6.223248523162842,35.5556,6.168529523162841Q35.4737,6.113811523162842,35.3827,6.0761205231628415Q35.2917,6.038429523162842,35.1951,6.019214523162842Q35.0985,5.999999523162842,35,5.999999523162842L21,5.999999523162842Q20.9015086,5.999999523162842,20.80491,6.019214523162842Q20.708311,6.038429523162842,20.617317,6.0761205231628415Q20.526322,6.113811523162842,20.44443,6.168529523162841Q20.362537,6.223248523162842,20.292893,6.292892523162842Q20.223249,6.3625365231628415,20.16853,6.4444295231628415Q20.113812,6.526321523162842,20.076121,6.617316523162842Q20.038429999999998,6.708310523162842,20.019215,6.804909523162841Q20,6.9015081231628415,20,6.999999523162842L20,13.999999523162842Q20,14.098489523162842,20.019215,14.195089523162842Q20.038429999999998,14.291689523162841,20.076121,14.382679523162842Q20.113812,14.473679523162842,20.16853,14.555569523162841Q20.223249,14.637459523162843,20.292893,14.707109523162842Q20.362537,14.776749523162842,20.44443,14.831469523162841Q20.526322,14.886189523162841,20.617317,14.923879523162842Q20.708311,14.961569523162842,20.80491,14.980779523162841Q20.9015086,14.999999523162842,21,14.999999523162842Q21.0984914,14.999999523162842,21.19509,14.980779523162841Q21.291689,14.961569523162842,21.382683,14.923879523162842Q21.473678,14.886189523162841,21.55557,14.831469523162841Q21.637463,14.776749523162842,21.707107,14.707109523162842Q21.776751,14.637459523162843,21.83147,14.555569523162841Q21.886188,14.473679523162842,21.923879,14.382679523162842Q21.961570000000002,14.291689523162841,21.980785,14.195089523162842Q22,14.098489523162842,22,13.999999523162842L22,7.999999523162842L34,7.999999523162842Z" fill-rule="evenodd" fill="#000000" fill-opacity="1"/></g><g><g transform="matrix(0,1,-1,0,45,-1)"><line x1="23" y1="21" x2="36" y2="21" fill-opacity="0" stroke-opacity="1" stroke="#000000" fill="none" stroke-width="2" stroke-linecap="ROUND"/></g><g transform="matrix(0,1,-1,0,54,0)"><line x1="27" y1="26" x2="35" y2="26" fill-opacity="0" stroke-opacity="1" stroke="#000000" fill="none" stroke-width="2" stroke-linecap="ROUND"/></g><g transform="matrix(0,1,-1,0,56,-6)"><line x1="31" y1="24" x2="41" y2="24" fill-opacity="0" stroke-opacity="1" stroke="#000000" fill="none" stroke-width="2" stroke-linecap="ROUND"/></g></g></g></svg>