<svg xmlns="http://www.w3.org/2000/svg" xmlns:xlink="http://www.w3.org/1999/xlink" fill="none" version="1.1" width="24" height="24" viewBox="0 0 24 24"><defs><clipPath id="master_svg0_0_1398"><rect x="0" y="0" width="24" height="24" rx="0"/></clipPath></defs><g clip-path="url(#master_svg0_0_1398)"><g><g></g><g><path d="M15.905,6.00129C15.145,6.0011600000000005,14.4153,6.29941,13.8729,6.83185C13.3305,7.3643,13.0189,8.08838,13.005,8.84829C13.005,8.84829,12.977,10.42329,12.977,10.42329C12.9754,10.507850000000001,12.9559,10.59111,12.9198,10.66761C12.8837,10.74411,12.8319,10.81211,12.7676,10.86717C12.7034,10.92222,12.6283,10.96307,12.5472,10.98705C12.4661,11.01102,12.3808,11.017579999999999,12.297,11.00629C12.297,11.00629,10.736,10.79429,10.736,10.79429C8.682,10.514289999999999,6.714,9.568290000000001,4.8260000000000005,7.99529C4.228,11.30529,5.396,13.59829,8.209,15.3673C8.209,15.3673,9.956,16.4653,9.956,16.4653C10.03901,16.5175,10.10797,16.589199999999998,10.15685,16.6741C10.20573,16.7591,10.23304,16.854799999999997,10.23639,16.9528C10.23975,17.0507,10.21905,17.1481,10.17609,17.2362C10.13314,17.3243,10.06924,17.4006,9.99,17.4583C9.99,17.4583,8.398,18.621299999999998,8.398,18.621299999999998C9.344999999999999,18.680300000000003,10.244,18.6383,10.99,18.490299999999998C15.708,17.548299999999998,18.845,13.99829,18.845,8.14229C18.845,7.664289999999999,17.833,6.00129,15.905,6.00129C15.905,6.00129,15.905,6.00129,15.905,6.00129ZM11.005,8.81129C11.02245,7.84734,11.32389,6.90996,11.87156,6.11651C12.4192,5.32306,13.1888,4.708806,14.0839,4.350653C14.979,3.99250063,15.9599,3.9063659,16.9037,4.103034C17.8476,4.299701,18.7124,4.770431,19.39,5.45629C20.101,5.45129,20.706,5.63129,22.059,4.811287C21.724,6.45129,21.559,7.16329,20.845,8.14229C20.845,15.7843,16.148,19.5003,11.382,20.4513C8.114,21.1033,3.362,20.0323,2,18.610300000000002C2.694,18.5563,5.513999999999999,18.2533,7.144,17.060299999999998C5.765000000000001,16.1513,0.276,12.92129,3.883,4.237286C5.5760000000000005,6.21429,7.293,7.56029,9.033000000000001,8.27429C10.191,8.74929,10.475,8.73929,11.006,8.81229C11.006,8.81229,11.005,8.81129,11.005,8.81129Z" fill="#000000" fill-opacity="1"/><path d="M11.87156,6.11651C11.36183,6.85499,11.0654,7.71814,11.0127,8.611360000000001C11.00878,8.67785,11.00621,8.7445,11.005,8.81129L11.006,8.81229C10.93569,8.802620000000001,10.86971,8.79441,10.80546,8.78634C10.38447,8.73343,10.03767,8.68639,9.033000000000001,8.27429C7.34316,7.58087,5.67501,6.29136,4.02947,4.406681Q3.9562,4.32277,3.883,4.237286C3.8540799999999997,4.306922,3.8257399999999997,4.376207,3.79798,4.445142C0.4989300000000001,12.6373,5.36373,15.8995,6.96447,16.942999999999998C6.97909,16.9525,6.99344,16.9619,7.00751,16.9711C7.05654,17.003,7.10216,17.0327,7.144,17.060299999999998C7.08643,17.1024,7.02737,17.1435,6.96698,17.1834C5.48529,18.1634,3.19802,18.4921,2.262681,18.5866C2.156727,18.5973,2.0681217,18.605,2,18.610300000000002C2.0594411,18.6723,2.125339,18.7337,2.197289,18.7943C3.77395,20.1225,8.25662,21.0748,11.382,20.4513C16.148,19.5003,20.845,15.7843,20.845,8.14229C21.5195,7.217499999999999,21.704,6.53096,22.0048,5.07541C22.0224,4.990081,22.0404,4.902107,22.059,4.811287C21.9791,4.859706,21.9018,4.904638,21.827,4.946328C20.8311,5.50099,20.2658,5.48167,19.7169,5.46291C19.6083,5.4592,19.5005,5.45551,19.39,5.45629C18.7124,4.770431,17.8476,4.299701,16.9037,4.103034C15.9599,3.9063659,14.979,3.99250063,14.0839,4.350653C13.1888,4.708806,12.4192,5.32306,11.87156,6.11651ZM11.56873,9.091529999999999L11.20719,8.730540000000001Q11.25467,7.36231,12.0362,6.230119999999999Q12.8417,5.06312,14.1582,4.536341Q15.4747,4.00956853,16.8629,4.298828Q18.2511,4.588088,19.2477,5.59685L19.307,5.65687L19.3914,5.65628Q19.4977,5.65553,19.7101,5.66279Q20.3295,5.68396,20.7225,5.59997Q21.2088,5.49603,21.773,5.20224Q21.5552,6.219390000000001,21.4048,6.6601Q21.1644,7.36487,20.6834,8.02444L20.645,8.0771L20.645,8.14229Q20.645,13.39816,17.7509,16.6735Q15.2803,19.4695,11.34287,20.2552Q8.988330000000001,20.7249,6.01661,20.1127Q4.68604,19.8385,3.65869,19.4053Q2.932303,19.0989,2.482218,18.7655Q3.36195,18.6676,4.26632,18.4572Q6.18347,18.0111,7.26212,17.2217L7.49437,17.0517L7.25407,16.8933Q7.21173,16.8654,7.11666,16.8035Q6.12873,16.16,5.50112,15.5872Q4.37107,14.5558,3.72411,13.28816Q1.9114128,9.73647,3.94564,4.614425Q6.41303,7.41538,8.957080000000001,8.45931Q9.9988,8.88662,10.7962,8.986740000000001Q10.91529,9.0017,10.97876,9.01042L11.56873,9.091529999999999ZM15.905,5.80129Q17.2527,5.8012999999999995,18.2367,6.74844Q18.6031,7.10111,18.8312,7.50835Q19.045,7.88992,19.045,8.14228Q19.045,12.49974,16.843600000000002,15.2831Q14.7375,17.945999999999998,11.02892,18.686500000000002Q9.88147,18.914099999999998,8.38556,18.8209L7.83285,18.7865L9.872250000000001,17.296599999999998Q9.9527,17.238,9.996310000000001,17.148600000000002Q10.03992,17.0591,10.03651,16.959600000000002Q10.03311,16.8601,9.98348,16.773899999999998Q9.93386,16.6876,9.84957,16.6346L8.10253,15.5366Q5.91189,14.159,5.05743,12.34437Q4.17544,10.47127,4.6291899999999995,7.95973L4.69023,7.62185L4.95402,7.84163Q7.77047,10.18818,10.76292,10.59611L12.3237,10.80808Q12.4085,10.8195,12.4905,10.79525Q12.5725,10.771,12.6375,10.71533Q12.7024,10.659659999999999,12.7389,10.58229Q12.7754,10.50493,12.777,10.419730000000001L12.805,8.84463Q12.8282,7.57719,13.7328,6.6891300000000005Q14.6374,5.80109,15.905,5.80129L15.905,5.80129ZM15.905,6.00129C15.145,6.0011600000000005,14.4153,6.29941,13.8729,6.83185C13.3305,7.3643,13.0189,8.08838,13.005,8.84829L12.977,10.42329C12.9754,10.507850000000001,12.9559,10.59111,12.9198,10.66761C12.8837,10.74411,12.8319,10.81211,12.7676,10.86717C12.7034,10.92222,12.6283,10.96307,12.5472,10.98705C12.4661,11.01102,12.3808,11.017579999999999,12.297,11.00629L10.736,10.79429C8.74629,10.52305,6.83727,9.626850000000001,5.0035,8.14114C4.94426,8.09313,4.88509,8.04452,4.8260000000000005,7.99529C4.81219,8.07171,4.799329999999999,8.147590000000001,4.7874,8.222940000000001C4.28281,11.41089,5.46095,13.63913,8.209,15.3673L9.956,16.4653C10.03901,16.5175,10.10797,16.589199999999998,10.15685,16.6741C10.20573,16.7591,10.23304,16.854799999999997,10.23639,16.9528C10.23975,17.0507,10.21905,17.1481,10.17609,17.2362C10.13314,17.3243,10.06924,17.4006,9.99,17.4583L8.65335,18.4347L8.398,18.621299999999998C8.504349999999999,18.6279,8.61009,18.6333,8.71508,18.6373C9.54499,18.6695,10.32778,18.6217,10.99,18.490299999999998C15.708,17.548299999999998,18.845,13.99829,18.845,8.14229C18.845,7.664289999999999,17.833,6.00129,15.905,6.00129Z" fill-rule="evenodd" fill="#FFFFFF" fill-opacity="1"/></g></g></g></svg>