<svg xmlns="http://www.w3.org/2000/svg" xmlns:xlink="http://www.w3.org/1999/xlink" fill="none" version="1.1" width="24" height="24" viewBox="0 0 24 24"><defs><clipPath id="master_svg0_0_1402"><rect x="0" y="0" width="24" height="24" rx="0"/></clipPath></defs><g clip-path="url(#master_svg0_0_1402)"><g><path d="M11.5,9.05C12.417,8.113,13.611,7.5,15,7.5C16.4587,7.5,17.857599999999998,8.079460000000001,18.8891,9.11091C19.9205,10.14236,20.5,11.54131,20.5,13C20.5,13,20.5,20.5,20.5,20.5C20.5,20.5,18.5,20.5,18.5,20.5C18.5,20.5,18.5,13,18.5,13C18.5,12.07174,18.1313,11.1815,17.474899999999998,10.52513C16.8185,9.86875,15.9283,9.5,15,9.5C14.0717,9.5,13.1815,9.86875,12.52513,10.52513C11.86875,11.1815,11.5,12.07174,11.5,13C11.5,13,11.5,20.5,11.5,20.5C11.5,20.5,9.5,20.5,9.5,20.5C9.5,20.5,9.5,8,9.5,8C9.5,8,11.5,8,11.5,8C11.5,8,11.5,9.05,11.5,9.05ZM4.5,6C4.10218,6,3.720644,5.84196,3.43934,5.56066C3.158035,5.2793600000000005,3,4.89782,3,4.5C3,4.10218,3.158035,3.720644,3.43934,3.43934C3.720644,3.158035,4.10218,3.0000000000000004,4.5,3C4.89782,3,5.2793600000000005,3.158035,5.56066,3.43934C5.84196,3.720644,6,4.10218,6,4.5C6,4.89782,5.84196,5.2793600000000005,5.56066,5.56066C5.2793600000000005,5.84196,4.89782,6,4.5,6ZM3.5,8C3.5,8,5.5,8,5.5,8C5.5,8,5.5,20.5,5.5,20.5C5.5,20.5,3.5,20.5,3.5,20.5C3.5,20.5,3.5,8,3.5,8Z" fill="#000000" fill-opacity="1"/></g></g></svg>