<svg xmlns="http://www.w3.org/2000/svg" xmlns:xlink="http://www.w3.org/1999/xlink" fill="none" version="1.1" width="24" height="24" viewBox="0 0 24 24"><defs><clipPath id="master_svg0_0_1400"><rect x="0" y="0" width="24" height="24" rx="0"/></clipPath></defs><g clip-path="url(#master_svg0_0_1400)"><g><g><path d="M21.75,7Q21.75,5.03249,20.3588,3.6412430000000002Q18.9675,2.25,17,2.25L7,2.25Q5.03249,2.25,3.6412430000000002,3.6412430000000002Q2.25,5.03249,2.25,7L2.25,17Q2.25,18.9675,3.6412430000000002,20.3588Q5.03248,21.75,7,21.75L17,21.75Q18.9675,21.75,20.3588,20.3588Q21.75,18.9675,21.75,17L21.75,7ZM17,3.75Q18.3462,3.75,19.2981,4.7019Q20.25,5.65381,20.25,7L20.25,17Q20.25,18.3462,19.2981,19.2981Q18.3462,20.25,17,20.25L7,20.25Q5.65381,20.25,4.7019,19.2981Q3.75,18.3462,3.75,17L3.75,7Q3.75,5.65381,4.7019,4.7019Q5.65381,3.75,7,3.75L17,3.75Z" fill-rule="evenodd" fill="#000000" fill-opacity="1"/></g><g><path d="M8.641243,15.35876Q10.03248,16.75,12,16.75Q13.96752,16.75,15.35876,15.35876Q16.75,13.96752,16.75,12Q16.75,10.03248,15.35876,8.641243Q13.96751,7.25,12,7.25Q10.03249,7.25,8.641243,8.641243Q7.25,10.03249,7.25,12Q7.25,13.96751,8.641243,15.35876ZM14.2981,14.2981Q13.34619,15.25,12,15.25Q10.6538,15.25,9.7019,14.2981Q8.75,13.34619,8.75,12Q8.75,10.65381,9.7019,9.7019Q10.65381,8.75,12,8.75Q13.34619,8.75,14.2981,9.7019Q15.25,10.65381,15.25,12Q15.25,13.3462,14.2981,14.2981Z" fill-rule="evenodd" fill="#000000" fill-opacity="1"/></g><g><path d="M17.5,7.5C17.76522,7.5,18.01957,7.39464,18.20711,7.20711C18.39464,7.01957,18.5,6.76522,18.5,6.5C18.5,6.234784,18.39464,5.98043,18.20711,5.792893C18.01957,5.605357,17.76522,5.5,17.5,5.5C17.234784,5.5,16.980429,5.605357,16.792892,5.792893C16.605356,5.98043,16.5,6.234784,16.5,6.5C16.5,6.76522,16.605356,7.01957,16.792892,7.20711C16.980429,7.39464,17.234784,7.5,17.5,7.5Z" fill="#000000" fill-opacity="1"/></g></g></g></svg>