<svg xmlns="http://www.w3.org/2000/svg" xmlns:xlink="http://www.w3.org/1999/xlink" fill="none" version="1.1" width="80" height="80" viewBox="0 0 80 80"><defs><clipPath id="master_svg0_0_1380/0_2864/0_2865"><rect x="20" y="20" width="40" height="40" rx="0"/></clipPath></defs><g><g><g style="opacity:0.30000001192092896;"><ellipse cx="40" cy="40" rx="40" ry="40" fill="#2F2E30" fill-opacity="1"/></g><g><ellipse cx="40" cy="40" rx="29" ry="29" fill="#141414" fill-opacity="1"/></g></g><g clip-path="url(#master_svg0_0_1380/0_2864/0_2865)"><g><path d="M52.920772748947144,27.079232748947142Q47.56877274894714,21.727272748947144,39.999972748947144,21.727272748947144Q32.43119274894714,21.727272748947144,27.079232748947142,27.079232748947142Q21.727272748947144,32.43119274894714,21.727272748947144,39.999972748947144Q21.727272748947144,47.56877274894714,27.079232748947142,52.920772748947144Q32.431182748947144,58.27277274894714,39.999972748947144,58.27277274894714Q47.56877274894714,58.27277274894714,52.920772748947144,52.920772748947144Q58.27277274894714,47.56877274894714,58.27277274894714,39.999972748947144Q58.27277274894714,32.431182748947144,52.920772748947144,27.079232748947142ZM28.493442748947142,28.493442748947142Q33.25957274894714,23.727272748947144,39.999972748947144,23.727271748947143Q46.740372748947145,23.727272748947144,51.50657274894714,28.493442748947142Q56.27277274894714,33.25957274894714,56.27277274894714,39.999972748947144Q56.27277274894714,46.740372748947145,51.50657274894714,51.50657274894714Q46.740372748947145,56.27277274894714,39.999972748947144,56.27277274894714Q33.25957274894714,56.27277274894714,28.493442748947142,51.50657274894714Q23.727272748947144,46.740372748947145,23.727271748947143,39.999972748947144Q23.727272748947144,33.25957274894714,28.493442748947142,28.493442748947142Z" fill-rule="evenodd" fill="#FAFAFA" fill-opacity="1"/></g><g><path d="M36.10071497894287,44.76697298736572L36.10024497894287,44.76617298736572Q36.00976497894287,44.60927298736572,35.88175497894287,44.48107298736572Q35.75373497894287,44.352972987365725,35.596904978942874,44.26237298736572Q35.44008097894287,44.17177298736572,35.265143978942874,44.12487298736572Q35.09020597894287,44.077972987365726,34.90909097894287,44.077972987365726Q34.84154197894287,44.077972987365726,34.77431697894287,44.08467298736572Q34.707092978942875,44.09127298736573,34.64084177894287,44.10437298736572Q34.57459037894287,44.11757298736572,34.50994957894287,44.13717298736572Q34.44530897894287,44.15677298736573,34.38290097894287,44.18267298736572Q34.32049397894287,44.208472987365724,34.26092097894287,44.240372987365724Q34.20134697894287,44.27217298736572,34.14518197894287,44.30977298736572Q34.08901697894287,44.34727298736572,34.036799978942874,44.39007298736573Q33.98458397894287,44.43297298736572,33.936818978942874,44.480772987365725Q33.88905497894287,44.528472987365724,33.84620197894287,44.58067298736572Q33.80334897894287,44.63297298736572,33.76581997894287,44.68907298736572Q33.72829197894287,44.74527298736572,33.69644897894287,44.80487298736573Q33.66460697894287,44.864372987365726,33.63875697894287,44.92677298736572Q33.612906978942874,44.98917298736572,33.59329797894287,45.05387298736572Q33.57368997894287,45.11847298736572,33.56051097894287,45.18477298736572Q33.54733297894287,45.25097298736572,33.54071497894287,45.318272987365724Q33.53409497894287,45.38547298736572,33.53409497894287,45.452972987365726Q33.53409497894287,45.821072987365724,33.71794097894287,46.13987298736572Q34.411675978942874,47.34297298736573,35.62587497894287,48.01727298736572Q36.82914497894287,48.685572987365724,38.20328497894287,48.64567298736572L41.818184978942874,48.64567298736572Q43.89383497894287,48.64567298736572,45.36165497894287,47.17827298736572Q46.82955497894287,45.71077298736572,46.82955497894287,43.63537298736572Q46.82955497894287,41.55987298736572,45.36165497894287,40.09235298736572Q43.89384497894287,38.625002987365725,41.818184978942874,38.625002987365725L38.18181497894287,38.625002987365725Q37.24501497894287,38.625002987365725,36.58265497894287,37.962822987365726Q35.92045497894287,37.300812987365724,35.92045497894287,36.36466298736572Q35.92045497894287,35.428522987365724,36.58265497894287,34.766502987365726Q37.24501497894287,34.10433298736572,38.18181497894287,34.10433298736572L41.818184978942874,34.10433298736572Q41.84131497894287,34.10433298736572,41.86443497894287,34.103552987365724Q42.49094497894287,34.08246298736572,43.03889497894287,34.38680298736572Q43.58677497894287,34.69109298736572,43.89975497894287,35.233862987365725Q43.99023497894287,35.390762987365726,44.11825497894287,35.51888298736572Q44.246264978942875,35.647002987365724,44.403094978942875,35.737602987365726Q44.55995497894287,35.82820298736572,44.73485497894287,35.87510298736572Q44.90975497894287,35.92200298736572,45.090954978942875,35.92200298736572Q45.15845497894287,35.92200298736572,45.22565497894287,35.91537298736572Q45.29295497894287,35.90875298736572,45.35915497894287,35.89558298736572Q45.425454978942874,35.88240298736572,45.49005497894287,35.86279298736572Q45.55465497894287,35.84318298736572,45.617054978942875,35.817332987365724Q45.679554978942875,35.791482987365725,45.739054978942875,35.75964298736572Q45.79865497894287,35.727792987365724,45.85485497894287,35.690272987365724Q45.91095497894287,35.65274298736572,45.96315497894287,35.609892987365726Q46.01545497894287,35.56703298736572,46.06315497894287,35.519272987365724Q46.11095497894287,35.471502987365724,46.15375497894287,35.41929298736572Q46.196654978942874,35.367072987365724,46.23415497894287,35.31090298736572Q46.27175497894287,35.254742987365724,46.30355497894287,35.19517298736572Q46.335354978942874,35.135592987365726,46.36125497894287,35.07319298736572Q46.38705497894287,35.01078298736572,46.40665497894287,34.946142987365725Q46.42635497894287,34.88150298736572,46.43945497894287,34.815252987365724Q46.452654978942874,34.748992987365725,46.45925497894287,34.681772987365726Q46.465954978942875,34.61455298736572,46.465954978942875,34.54700298736572Q46.465954978942875,34.17896298736572,46.28205497894287,33.86013298736572Q45.588354978942874,32.65707218736572,44.374124978942874,31.98270798736572Q43.17087497894287,31.314422987365724,41.79675497894287,31.354332987365723L38.18181497894287,31.354332987365723Q36.10615497894287,31.354332987365723,34.63838817894287,32.82168818736572Q33.17045497894287,34.28920298736572,33.17045497894287,36.36466298736572Q33.17045497894287,38.440122987365726,34.63838737894287,39.90764298736572Q36.10615497894287,41.37500298736572,38.18181497894287,41.37500298736572L41.818184978942874,41.37500298736572Q42.75498497894287,41.37500298736572,43.41734497894287,42.03717298736572Q44.07954497894287,42.69919298736572,44.07954497894287,43.63537298736572Q44.07954497894287,44.57147298736572,43.41734497894287,45.23347298736572Q42.75498497894287,45.89567298736572,41.818184978942874,45.89567298736572L38.18181497894287,45.89567298736572Q38.15868497894287,45.89567298736572,38.135564978942874,45.896472987365726Q37.50905497894287,45.91757298736572,36.96110497894287,45.61317298736572Q36.41377497894287,45.30917298736572,36.10086497894287,44.767172987365726L36.10071497894287,44.76697298736572Z" fill-rule="evenodd" fill="#FAFAFA" fill-opacity="1"/></g><g><path d="M38.625,28.18181800842285Q38.625,28.11426860842285,38.63162,28.04704400842285Q38.63824,27.979820008422852,38.65142,27.91356900842285Q38.6646,27.847317008422852,38.68421,27.78267700842285Q38.70382,27.718036008422853,38.72967,27.655628008422852Q38.75552,27.59322100842285,38.78736,27.53364800842285Q38.8192,27.47407400842285,38.85673,27.417909008422853Q38.89426,27.361744008422853,38.93711,27.30952700842285Q38.97996,27.257311008422853,39.027728,27.20954600842285Q39.075493,27.16177800842285,39.127709,27.118928008422852Q39.179926,27.07607800842285,39.236091,27.03854800842285Q39.292256,27.00101800842285,39.35183,26.96917800842285Q39.411403,26.937338008422852,39.47381,26.91148800842285Q39.536218,26.885638008422852,39.600859,26.86602800842285Q39.665499,26.84641800842285,39.731751,26.833238008422853Q39.798002,26.82005800842285,39.865226,26.813438008422853Q39.9324506,26.80681800842285,40,26.80681800842285Q40.0675494,26.80681800842285,40.134774,26.813438008422853Q40.201998,26.82005800842285,40.268249,26.833238008422853Q40.334501,26.84641800842285,40.399141,26.86602800842285Q40.463782,26.885638008422852,40.52619,26.91148800842285Q40.588597,26.937338008422852,40.64817,26.96917800842285Q40.707744,27.00101800842285,40.763909,27.03854800842285Q40.820074,27.07607800842285,40.872291,27.118928008422852Q40.924507,27.16177800842285,40.972272,27.20954600842285Q41.02004,27.257311008422853,41.06289,27.30952700842285Q41.10574,27.361744008422853,41.14327,27.417909008422853Q41.1808,27.47407400842285,41.21264,27.53364800842285Q41.24448,27.59322100842285,41.27033,27.655628008422852Q41.29618,27.718036008422853,41.31579,27.78267700842285Q41.3354,27.847317008422852,41.34858,27.91356900842285Q41.36176,27.979820008422852,41.36838,28.04704400842285Q41.375,28.11426860842285,41.375,28.18181800842285L41.375,32.121208008422855Q41.375,32.18875800842285,41.36838,32.255988008422854Q41.36176,32.32320800842285,41.34858,32.38945800842285Q41.3354,32.45570800842285,41.31579,32.52035800842285Q41.29618,32.58499800842285,41.27033,32.647398008422854Q41.24448,32.709808008422854,41.21264,32.76937800842285Q41.1808,32.82895800842285,41.14327,32.88511800842285Q41.10574,32.94128800842285,41.06289,32.993498008422854Q41.02004,33.04571800842285,40.972272,33.09348800842285Q40.924507,33.14124800842285,40.872291,33.18409800842285Q40.820074,33.226958008422855,40.763909,33.26447800842285Q40.707744,33.30200800842285,40.64817,33.33385800842285Q40.588597,33.365698008422854,40.52619,33.39154800842285Q40.463782,33.41739800842285,40.399141,33.43700800842285Q40.334501,33.45661800842285,40.268249,33.46978800842285Q40.201998,33.48296800842285,40.134774,33.48958800842285Q40.0675494,33.496208008422855,40,33.496208008422855Q39.9324506,33.496208008422855,39.865226,33.48958800842285Q39.798002,33.48296800842285,39.731751,33.46978800842285Q39.665499,33.45661800842285,39.600859,33.43700800842285Q39.536218,33.41739800842285,39.47381,33.39154800842285Q39.411403,33.365698008422854,39.35183,33.33385800842285Q39.292256,33.30200800842285,39.236091,33.26447800842285Q39.179926,33.226958008422855,39.127709,33.18409800842285Q39.075493,33.14124800842285,39.027728,33.09348800842285Q38.97996,33.04571800842285,38.93711,32.993498008422854Q38.89426,32.94128800842285,38.85673,32.88511800842285Q38.8192,32.82895800842285,38.78736,32.76937800842285Q38.75552,32.709808008422854,38.72967,32.647398008422854Q38.70382,32.58499800842285,38.68421,32.52035800842285Q38.6646,32.45570800842285,38.65142,32.38945800842285Q38.63824,32.32320800842285,38.63162,32.255988008422854Q38.625,32.18875800842285,38.625,32.121208008422855L38.625,28.18181800842285ZM38.625,47.878818008422854Q38.625,47.811218008422856,38.63162,47.744018008422856Q38.63824,47.676818008422856,38.65142,47.61051800842285Q38.6646,47.54431800842285,38.68421,47.47961800842285Q38.70382,47.41501800842285,38.72967,47.35261800842285Q38.75552,47.290218008422855,38.78736,47.23061800842285Q38.8192,47.17101800842285,38.85673,47.11491800842285Q38.89426,47.05871800842285,38.93711,47.00651800842285Q38.97996,46.95431800842285,39.027728,46.90651800842285Q39.075493,46.858718008422855,39.127709,46.815918008422855Q39.179926,46.77301800842285,39.236091,46.73551800842285Q39.292256,46.69801800842285,39.35183,46.666118008422856Q39.411403,46.63431800842285,39.47381,46.60841800842285Q39.536218,46.582618008422855,39.600859,46.56301800842285Q39.665499,46.54341800842285,39.731751,46.53021800842285Q39.798002,46.51701800842285,39.865226,46.51041800842285Q39.9324506,46.503818008422854,40,46.503818008422854Q40.0675494,46.503818008422854,40.134774,46.51041800842285Q40.201998,46.51701800842285,40.268249,46.53021800842285Q40.334501,46.54341800842285,40.399141,46.56301800842285Q40.463782,46.582618008422855,40.52619,46.60841800842285Q40.588597,46.63431800842285,40.64817,46.666118008422856Q40.707744,46.69801800842285,40.763909,46.73551800842285Q40.820074,46.77301800842285,40.872291,46.815918008422855Q40.924507,46.858718008422855,40.972272,46.90651800842285Q41.02004,46.95431800842285,41.06289,47.00651800842285Q41.10574,47.05871800842285,41.14327,47.11491800842285Q41.1808,47.17101800842285,41.21264,47.23061800842285Q41.24448,47.290218008422855,41.27033,47.35261800842285Q41.29618,47.41501800842285,41.31579,47.47961800842285Q41.3354,47.54431800842285,41.34858,47.61051800842285Q41.36176,47.676818008422856,41.36838,47.744018008422856Q41.375,47.811218008422856,41.375,47.878818008422854L41.375,51.818218008422846Q41.375,51.885718008422856,41.36838,51.952918008422856Q41.36176,52.02021800842285,41.34858,52.086418008422854Q41.3354,52.15271800842285,41.31579,52.21731800842285Q41.29618,52.28191800842285,41.27033,52.34441800842285Q41.24448,52.40681800842285,41.21264,52.46631800842285Q41.1808,52.52591800842285,41.14327,52.58211800842285Q41.10574,52.638218008422854,41.06289,52.690518008422856Q41.02004,52.742718008422855,40.972272,52.79041800842285Q40.924507,52.83821800842286,40.872291,52.88111800842285Q40.820074,52.92391800842285,40.763909,52.961418008422854Q40.707744,52.99901800842285,40.64817,53.030818008422855Q40.588597,53.06261800842285,40.52619,53.08851800842285Q40.463782,53.114318008422856,40.399141,53.134018008422856Q40.334501,53.15361800842285,40.268249,53.16671800842285Q40.201998,53.17991800842285,40.134774,53.18651800842285Q40.0675494,53.193218008422846,40,53.193218008422846Q39.9324506,53.193218008422846,39.865226,53.18651800842285Q39.798002,53.17991800842285,39.731751,53.16671800842285Q39.665499,53.15361800842285,39.600859,53.134018008422856Q39.536218,53.114318008422856,39.47381,53.08851800842285Q39.411403,53.06261800842285,39.35183,53.030818008422855Q39.292256,52.99901800842285,39.236091,52.961418008422854Q39.179926,52.92391800842285,39.127709,52.88111800842285Q39.075493,52.83821800842286,39.027728,52.79041800842285Q38.97996,52.742718008422855,38.93711,52.690518008422856Q38.89426,52.638218008422854,38.85673,52.58211800842285Q38.8192,52.52591800842285,38.78736,52.46631800842285Q38.75552,52.40681800842285,38.72967,52.34431800842285Q38.70382,52.28191800842285,38.68421,52.21731800842285Q38.6646,52.15271800842285,38.65142,52.086418008422854Q38.63824,52.02021800842285,38.63162,51.952918008422856Q38.625,51.885718008422856,38.625,51.818218008422846L38.625,47.878818008422854Z" fill-rule="evenodd" fill="#FAFAFA" fill-opacity="1"/></g></g></g></svg>